<?xml version="1.0" standalone="no"?>
<!DOCTYPE svg PUBLIC "-//W3C//DTD SVG 20010904//EN"
 "http://www.w3.org/TR/2001/REC-SVG-20010904/DTD/svg10.dtd">
<svg version="1.0" xmlns="http://www.w3.org/2000/svg"
 width="542.000000pt" height="167.000000pt" viewBox="0 0 542.000000 167.000000"
 preserveAspectRatio="xMidYMid meet">

<g transform="translate(0.000000,167.000000) scale(0.100000,-0.100000)"
fill="#000000" stroke="none">
<path d="M0 835 l0 -835 2710 0 2710 0 0 835 0 835 -2710 0 -2710 0 0 -835z
m1422 675 c22 -6 46 -23 58 -39 20 -28 20 -41 20 -590 l0 -561 -29 -32 -29
-33 -553 -3 c-589 -3 -591 -2 -629 46 -19 24 -20 43 -20 579 0 458 2 559 14
581 13 25 37 43 76 55 31 11 1055 7 1092 -3z m518 -245 c0 -96 3 -175 8 -175
4 0 45 38 92 85 l85 85 104 0 104 0 -101 -104 c-56 -58 -102 -109 -102 -114 0
-5 47 -69 105 -143 58 -74 105 -137 105 -141 0 -5 -45 -8 -100 -8 l-100 0 -72
90 -72 90 -28 -27 c-25 -24 -28 -34 -28 -90 l0 -63 -85 0 -85 0 0 345 0 345
85 0 85 0 0 -175z m791 -21 c92 -29 159 -128 159 -236 l0 -48 -180 0 c-99 0
-180 -3 -180 -8 0 -21 35 -52 68 -62 54 -15 83 -12 127 10 l40 20 44 -44 c51
-51 49 -61 -23 -98 -49 -26 -180 -36 -243 -19 -154 42 -237 209 -172 351 60
133 199 185 360 134z m579 -54 l0 -80 -37 0 c-47 0 -100 -31 -113 -66 -6 -14
-10 -86 -10 -160 l0 -135 -87 3 -88 3 -3 253 -2 252 85 0 85 0 0 -30 0 -29 36
24 c20 13 52 27 73 31 20 3 41 7 46 9 6 2 11 4 13 4 1 1 2 -35 2 -79z m419 53
c92 -33 150 -113 159 -220 l5 -63 -182 0 c-119 0 -181 -4 -181 -10 0 -24 49
-59 93 -65 35 -5 56 -2 93 14 l48 22 45 -45 c51 -51 49 -61 -23 -99 -35 -19
-57 -22 -146 -22 -95 0 -110 3 -156 27 -91 48 -135 121 -136 223 0 71 20 127
65 173 79 82 198 107 316 65z m1114 5 c49 -12 112 -69 129 -116 8 -24 12 -97
13 -207 l0 -170 -80 0 -80 0 -5 30 c-4 21 -7 25 -12 14 -19 -48 -159 -65 -232
-29 -52 26 -77 61 -84 115 -6 59 18 106 71 136 35 19 60 24 145 27 56 3 102 8
102 12 0 22 -15 42 -41 55 -46 24 -102 18 -190 -19 -12 -5 -22 6 -41 51 -29
66 -27 69 46 93 84 27 173 30 259 8z m-709 -138 c32 -82 62 -148 65 -145 4 2
33 69 65 149 l60 146 83 0 c46 0 83 -1 83 -2 0 -2 -53 -131 -118 -287 -126
-301 -151 -345 -225 -382 -34 -18 -53 -21 -111 -17 -39 3 -86 12 -104 22 l-32
17 31 60 c24 49 34 59 47 53 9 -4 35 -9 57 -12 31 -3 45 1 58 16 17 18 13 29
-88 267 -58 136 -105 252 -105 256 0 5 39 9 88 9 l87 0 59 -150z m-2344 -680
c0 -73 -4 -120 -10 -120 -6 0 -10 47 -10 120 0 73 4 120 10 120 6 0 10 -47 10
-120z m1226 95 c-26 -19 -42 -19 -26 0 7 8 20 15 29 15 13 -1 13 -3 -3 -15z
m-206 -25 c0 -15 7 -20 25 -20 14 0 25 -4 25 -10 0 -5 -11 -10 -25 -10 -25 0
-26 -1 -23 -62 3 -60 4 -63 31 -66 30 -4 28 -22 -3 -22 -35 0 -50 28 -50 91 0
46 -3 59 -15 59 -8 0 -15 5 -15 10 0 6 7 10 15 10 8 0 15 9 15 20 0 11 5 20
10 20 6 0 10 -9 10 -20z m1380 -6 c0 -8 10 -14 25 -14 14 0 25 -4 25 -10 0 -5
-11 -10 -25 -10 -25 0 -26 -1 -23 -62 3 -60 4 -63 31 -66 32 -4 27 -22 -7 -22
-36 0 -46 19 -46 87 0 49 -3 63 -15 63 -8 0 -15 5 -15 10 0 6 7 10 15 10 8 0
15 9 15 21 0 11 5 17 10 14 6 -3 10 -13 10 -21z m-2223 -22 c19 -12 33 -60 33
-113 0 -43 -13 -66 -22 -39 -2 7 -14 6 -35 -2 -42 -16 -83 1 -83 36 0 32 17
44 70 48 39 3 45 6 42 23 -6 29 -22 36 -69 31 -47 -6 -55 0 -20 14 28 11 68
12 84 2z m297 2 c30 -12 16 -20 -31 -20 -41 1 -48 -2 -48 -19 0 -15 11 -23 47
-33 58 -16 73 -46 37 -75 -26 -21 -91 -19 -113 3 -8 8 2 10 39 5 40 -6 54 -4
64 9 18 21 8 33 -36 41 -45 8 -63 21 -63 46 0 39 55 62 104 43z m188 -11 c14
-13 18 -31 18 -85 0 -39 -4 -68 -10 -68 -5 0 -10 4 -10 9 0 5 -13 4 -29 -2
-22 -8 -36 -8 -56 1 -22 10 -26 18 -23 45 3 31 4 32 56 35 43 3 52 6 52 21 0
31 -26 44 -73 37 -39 -5 -40 -5 -23 9 26 20 75 19 98 -2z m120 6 c3 -9 9 -9
25 0 33 17 68 13 89 -10 21 -24 34 -149 15 -149 -6 0 -11 19 -11 48 0 60 -18
96 -50 100 -43 5 -61 -18 -67 -86 -8 -90 -23 -76 -23 23 0 47 4 85 9 85 5 0
11 -5 13 -11z m473 -14 c14 -13 25 -33 25 -45 0 -18 -6 -20 -70 -20 -74 0 -83
-7 -50 -40 21 -21 74 -27 85 -10 4 6 11 7 17 4 16 -10 -20 -34 -50 -34 -52 0
-91 37 -92 88 0 43 38 82 80 82 19 0 40 -9 55 -25z m218 13 c4 -10 7 -10 18 0
20 18 63 15 93 -9 21 -16 26 -29 26 -64 0 -35 -5 -48 -26 -64 -32 -25 -71 -27
-96 -4 -17 15 -18 14 -18 -30 0 -26 -4 -47 -10 -47 -6 0 -10 45 -10 115 0 101
9 141 23 103z m332 -13 c52 -51 16 -145 -54 -145 -77 0 -115 97 -57 146 36 31
80 31 111 -1z m115 -38 c0 -67 10 -87 45 -87 40 0 56 22 62 88 8 90 23 76 23
-23 0 -47 -4 -85 -9 -85 -5 0 -11 5 -13 10 -2 7 -15 6 -36 -2 -27 -11 -37 -10
-60 3 -25 14 -27 20 -30 87 -2 45 1 72 8 72 6 0 10 -26 10 -63z m230 47 c0
-14 1 -14 16 0 17 18 44 21 44 6 0 -5 -5 -10 -12 -10 -30 0 -48 -33 -48 -92 0
-32 -4 -58 -10 -58 -6 0 -10 35 -10 85 0 50 4 85 10 85 6 0 10 -7 10 -16z
m484 -5 c21 -16 26 -29 26 -64 0 -35 -5 -48 -26 -64 -57 -45 -134 -8 -134 64
0 72 77 109 134 64z m116 -35 c0 -71 12 -94 50 -94 40 0 60 32 60 97 0 29 5
53 10 53 6 0 10 -35 10 -85 0 -50 -4 -85 -10 -85 -5 0 -10 7 -10 16 0 14 -2
14 -22 0 -31 -22 -64 -20 -88 4 -16 16 -20 33 -20 85 0 37 4 65 10 65 6 0 10
-25 10 -56z m305 46 c23 -10 16 -12 -40 -14 -33 -1 -40 -5 -40 -21 0 -13 10
-22 30 -28 49 -15 60 -23 63 -47 7 -44 -69 -68 -113 -36 -18 13 -14 14 35 13
49 -2 55 0 55 18 0 15 -11 23 -46 32 -55 16 -69 43 -38 74 20 20 60 24 94 9z"/>
<path d="M322 1444 l-22 -15 0 -540 c0 -353 4 -547 10 -560 10 -18 27 -19 559
-19 498 0 550 2 562 17 11 13 15 113 17 532 2 284 0 530 -3 547 -3 20 -14 35
-31 42 -18 9 -174 12 -547 12 -457 0 -525 -2 -545 -16z m696 -296 l3 -117 117
-3 117 -3 3 -139 c2 -105 -1 -141 -10 -148 -7 -4 -61 -8 -120 -8 l-108 0 0
-108 c0 -71 -4 -112 -12 -120 -17 -17 -259 -17 -276 0 -8 8 -12 49 -12 120 l0
107 -117 3 -118 3 0 145 0 145 118 3 117 3 0 103 c0 58 3 112 6 120 6 14 25
16 148 14 l141 -3 3 -117z"/>
<path d="M780 1105 c0 -138 3 -135 -139 -135 l-101 0 0 -90 0 -90 108 0 c71 0
112 -4 120 -12 8 -8 12 -49 12 -120 l0 -108 90 0 90 0 0 108 c0 71 4 112 12
120 8 8 49 12 120 12 l108 0 0 90 0 90 -104 0 c-137 0 -136 -1 -136 141 l0
109 -90 0 -90 0 0 -115z"/>
<path d="M2590 1133 c-27 -10 -60 -46 -60 -65 0 -16 10 -18 95 -18 85 0 95 2
95 18 0 42 -84 84 -130 65z"/>
<path d="M3575 1126 c-25 -11 -55 -50 -55 -71 0 -3 45 -5 100 -5 64 0 100 4
100 11 0 22 -22 49 -50 64 -35 18 -55 18 -95 1z"/>
<path d="M4682 944 c-44 -30 -17 -84 42 -84 46 0 86 33 86 71 0 28 -1 29 -53
29 -31 0 -61 -6 -75 -16z"/>
<path d="M1892 381 c-24 -14 -10 -46 21 -49 30 -4 67 21 67 45 0 15 -66 18
-88 4z"/>
<path d="M2364 375 c-10 -26 4 -45 34 -45 32 0 52 16 52 42 0 14 -8 18 -40 18
-27 0 -43 -5 -46 -15z"/>
<path d="M2946 438 c-22 -31 -12 -38 50 -38 59 0 69 13 36 43 -26 24 -68 21
-86 -5z"/>
<path d="M3277 442 c-22 -25 -21 -75 1 -95 42 -38 102 -8 102 50 0 55 -67 85
-103 45z"/>
<path d="M3496 445 c-26 -27 -29 -56 -9 -84 54 -71 149 4 97 77 -18 26 -65 30
-88 7z"/>
<path d="M4327 442 c-22 -25 -21 -75 1 -95 42 -38 102 -8 102 50 0 55 -67 85
-103 45z"/>
</g>
</svg>
